<svg xmlns="http://www.w3.org/2000/svg" viewBox="0 0 1200 760"><defs><linearGradient id="a" x1="0" x2="1" y1="0" y2="1"><stop stop-color="#08111f"/><stop offset="1" stop-color="#111827"/></linearGradient><linearGradient id="b" x1="0" x2="1"><stop stop-color="#a78bfa"/><stop offset="1" stop-color="#7dd3fc"/></linearGradient><filter id="g"><feGaussianBlur stdDeviation="20" result="b"/><feMerge><feMergeNode in="b"/><feMergeNode in="SourceGraphic"/></feMerge></filter></defs><rect width="1200" height="760" fill="url(#a)"/><g opacity=".18" stroke="#fff"><path d="M0 120h1200M0 240h1200M0 360h1200M0 480h1200M0 600h1200"/><path d="M160 0v760M320 0v760M480 0v760M640 0v760M800 0v760M960 0v760"/></g><circle cx="940" cy="180" r="160" fill="#a78bfa" opacity=".12" filter="url(#g)"/><circle cx="260" cy="560" r="190" fill="#7dd3fc" opacity=".10" filter="url(#g)"/><rect x="130" y="160" width="940" height="440" rx="42" fill="#0a1220" stroke="url(#b)" stroke-width="4" opacity=".96"/><text x="170" y="275" fill="#f8fafc" font-family="Arial, sans-serif" font-size="62" font-weight="800">Zero Trust Architecture</text><text x="174" y="350" fill="#a78bfa" font-family="monospace" font-size="28">segmentation • access control • monitoring</text><text x="170" y="475" fill="#94a3b8" font-family="monospace" font-size="26">$ scan --portfolio --evidence-based</text><text x="170" y="525" fill="#d6b968" font-family="monospace" font-size="26">status: documented</text></svg>